<mxfile host="app.diagrams.net" modified="2023-08-25T17:04:33.790Z" agent="Mozilla/5.0 (Windows NT 10.0; Win64; x64) AppleWebKit/537.36 (KHTML, like Gecko) Chrome/116.0.0.0 Safari/537.36" etag="fvawlJmH03UljtYuyTpJ" version="21.6.9" type="device">
  <diagram name="Página-1" id="fAHBZS3hZytik_IbmYms">
    <mxGraphModel dx="600" dy="328" grid="1" gridSize="10" guides="1" tooltips="1" connect="1" arrows="1" fold="1" page="1" pageScale="1" pageWidth="827" pageHeight="1169" math="0" shadow="0">
      <root>
        <mxCell id="0" />
        <mxCell id="1" parent="0" />
        <mxCell id="ntEbrki8mhOBcsIaQiLd-1" value="tigre" style="swimlane;fontStyle=1;align=center;verticalAlign=top;childLayout=stackLayout;horizontal=1;startSize=26;horizontalStack=0;resizeParent=1;resizeParentMax=0;resizeLast=0;collapsible=1;marginBottom=0;whiteSpace=wrap;html=1;fillColor=#ffe6cc;strokeColor=#d79b00;gradientColor=none;" parent="1" vertex="1">
          <mxGeometry x="340" y="130" width="220" height="340" as="geometry" />
        </mxCell>
        <mxCell id="8X_LZWB2-Wgm7CsRZ3wC-6" value="" style="verticalLabelPosition=bottom;verticalAlign=top;html=1;shape=mxgraph.flowchart.parallel_mode;pointerEvents=1" vertex="1" parent="ntEbrki8mhOBcsIaQiLd-1">
          <mxGeometry y="26" width="220" height="40" as="geometry" />
        </mxCell>
        <mxCell id="ntEbrki8mhOBcsIaQiLd-2" value="+sexo&lt;br&gt;+idade&lt;br&gt;+regiao&lt;br&gt;+tamanho&lt;br&gt;+peso&lt;br&gt;+subespecie&lt;br&gt;+listras&amp;nbsp;&lt;br&gt;+cheiro" style="text;strokeColor=#b85450;fillColor=#f8cecc;align=left;verticalAlign=top;spacingLeft=4;spacingRight=4;overflow=hidden;rotatable=0;points=[[0,0.5],[1,0.5]];portConstraint=eastwest;whiteSpace=wrap;html=1;gradientColor=#FF0000;" parent="ntEbrki8mhOBcsIaQiLd-1" vertex="1">
          <mxGeometry y="66" width="220" height="144" as="geometry" />
        </mxCell>
        <mxCell id="ntEbrki8mhOBcsIaQiLd-3" value="" style="line;strokeWidth=1;fillColor=none;align=left;verticalAlign=middle;spacingTop=-1;spacingLeft=3;spacingRight=3;rotatable=0;labelPosition=right;points=[];portConstraint=eastwest;strokeColor=inherit;" parent="ntEbrki8mhOBcsIaQiLd-1" vertex="1">
          <mxGeometry y="210" width="220" height="8" as="geometry" />
        </mxCell>
        <mxCell id="ntEbrki8mhOBcsIaQiLd-4" value="+correr():void&lt;br&gt;+caçar():void&lt;br&gt;+comer():void&lt;br&gt;+dormir():void&lt;br&gt;+procriar():void&lt;br&gt;+nadar():void&lt;br&gt;+marcar terriitorio():void" style="text;strokeColor=none;fillColor=none;align=left;verticalAlign=top;spacingLeft=4;spacingRight=4;overflow=hidden;rotatable=0;points=[[0,0.5],[1,0.5]];portConstraint=eastwest;whiteSpace=wrap;html=1;" parent="ntEbrki8mhOBcsIaQiLd-1" vertex="1">
          <mxGeometry y="218" width="220" height="122" as="geometry" />
        </mxCell>
        <mxCell id="8X_LZWB2-Wgm7CsRZ3wC-2" value="" style="edgeStyle=orthogonalEdgeStyle;rounded=0;orthogonalLoop=1;jettySize=auto;html=1;" edge="1" parent="1" source="8X_LZWB2-Wgm7CsRZ3wC-1" target="ntEbrki8mhOBcsIaQiLd-4">
          <mxGeometry relative="1" as="geometry" />
        </mxCell>
        <mxCell id="8X_LZWB2-Wgm7CsRZ3wC-1" value="Actor" style="shape=umlActor;verticalLabelPosition=bottom;verticalAlign=top;html=1;outlineConnect=0;" vertex="1" parent="1">
          <mxGeometry x="290" y="140" width="30" height="60" as="geometry" />
        </mxCell>
        <mxCell id="8X_LZWB2-Wgm7CsRZ3wC-3" value="" style="shape=image;html=1;verticalLabelPosition=bottom;verticalAlign=top;imageAspect=0;image=img/clipart/Gear_128x128.png" vertex="1" parent="1">
          <mxGeometry x="240" y="140" width="50" height="60" as="geometry" />
        </mxCell>
        <mxCell id="8X_LZWB2-Wgm7CsRZ3wC-11" style="edgeStyle=orthogonalEdgeStyle;rounded=0;orthogonalLoop=1;jettySize=auto;html=1;fillColor=#d5e8d4;strokeColor=#82b366;" edge="1" parent="1" source="8X_LZWB2-Wgm7CsRZ3wC-4">
          <mxGeometry relative="1" as="geometry">
            <mxPoint x="692.2857142857143" y="290" as="targetPoint" />
          </mxGeometry>
        </mxCell>
        <mxCell id="8X_LZWB2-Wgm7CsRZ3wC-4" value="" style="rhombus;whiteSpace=wrap;html=1;strokeWidth=2;fillWeight=-1;hachureGap=8;fillStyle=cross-hatch;fillColor=#d5e8d4;sketch=1;strokeColor=#82b366;" vertex="1" parent="1">
          <mxGeometry x="660" y="160" width="120" height="60" as="geometry" />
        </mxCell>
        <mxCell id="8X_LZWB2-Wgm7CsRZ3wC-5" value="" style="strokeWidth=2;html=1;shape=mxgraph.flowchart.multi-document;whiteSpace=wrap;" vertex="1" parent="1">
          <mxGeometry x="120" y="200" width="88" height="60" as="geometry" />
        </mxCell>
        <mxCell id="8X_LZWB2-Wgm7CsRZ3wC-7" value="" style="verticalLabelPosition=bottom;verticalAlign=top;html=1;shape=mxgraph.flowchart.or;" vertex="1" parent="1">
          <mxGeometry x="138" y="260" width="70" height="70" as="geometry" />
        </mxCell>
        <mxCell id="8X_LZWB2-Wgm7CsRZ3wC-8" value="" style="verticalLabelPosition=bottom;verticalAlign=top;html=1;shape=mxgraph.flowchart.sort;" vertex="1" parent="1">
          <mxGeometry x="114" y="100" width="100" height="100" as="geometry" />
        </mxCell>
        <mxCell id="8X_LZWB2-Wgm7CsRZ3wC-9" value="" style="strokeWidth=2;html=1;shape=mxgraph.flowchart.sequential_data;whiteSpace=wrap;" vertex="1" parent="1">
          <mxGeometry x="123" y="340" width="100" height="100" as="geometry" />
        </mxCell>
        <mxCell id="8X_LZWB2-Wgm7CsRZ3wC-10" value="" style="edgeStyle=entityRelationEdgeStyle;fontSize=12;html=1;endArrow=ERoneToMany;startArrow=ERzeroToMany;rounded=0;" edge="1" parent="1">
          <mxGeometry width="100" height="100" relative="1" as="geometry">
            <mxPoint x="560" y="290" as="sourcePoint" />
            <mxPoint x="660" y="190" as="targetPoint" />
          </mxGeometry>
        </mxCell>
      </root>
    </mxGraphModel>
  </diagram>
</mxfile>
